<?xml version="1.0" standalone="no"?>
<!DOCTYPE svg PUBLIC "-//W3C//DTD SVG 20010904//EN"
 "http://www.w3.org/TR/2001/REC-SVG-20010904/DTD/svg10.dtd">
<svg version="1.0" xmlns="http://www.w3.org/2000/svg"
 width="900.000000pt" height="258.000000pt" viewBox="0 0 900.000000 258.000000"
 preserveAspectRatio="xMidYMid meet">
<metadata>
Created by potrace 1.10, written by Peter Selinger 2001-2011
</metadata>
<g transform="translate(0.000000,258.000000) scale(0.100000,-0.100000)"
fill="#000000" stroke="none">
<path d="M166 2328 c-15 -8 -16 -97 -16 -1018 l0 -1010 23 -5 c12 -3 96 -4
187 -3 l165 3 2 65 c2 107 2 110 17 110 7 0 36 -26 63 -57 48 -54 96 -86 193
-126 38 -15 193 -47 231 -47 58 0 181 35 266 77 112 55 192 133 253 247 55
102 78 183 95 336 13 110 13 141 -1 255 -21 181 -39 240 -112 366 -85 146
-246 252 -407 268 -162 16 -309 -11 -402 -74 -67 -44 -88 -60 -92 -68 -1 -4
-14 -19 -28 -32 -52 -48 -53 -43 -53 345 0 276 -3 361 -12 367 -18 11 -352 12
-372 1z m832 -824 c107 -31 193 -120 235 -244 24 -70 37 -221 27 -325 -12
-131 -37 -196 -110 -291 -25 -32 -93 -80 -130 -92 -19 -7 -73 -12 -120 -13
-70 -1 -94 3 -134 21 -96 46 -187 168 -215 292 -14 61 -14 286 0 346 27 117
108 237 189 281 75 40 173 49 258 25z"/>
<path d="M1824 2326 c-2 -6 -3 -465 -2 -1021 l3 -1010 185 0 185 0 0 1020 0
1020 -184 1 c-121 0 -184 -3 -187 -10z"/>
<path d="M3009 1789 c-53 -4 -113 -15 -134 -23 -21 -9 -43 -16 -50 -16 -7 0
-50 -21 -96 -46 -60 -32 -106 -68 -159 -123 -102 -104 -146 -193 -189 -384
-14 -61 -14 -283 0 -344 38 -169 90 -279 174 -370 126 -137 259 -196 539 -240
37 -6 206 18 276 39 268 79 432 246 499 504 17 65 21 111 21 238 0 215 -22
304 -113 456 -95 160 -311 292 -497 306 -142 10 -179 10 -271 3z m208 -280
c75 -17 131 -49 176 -99 85 -94 117 -201 117 -390 0 -205 -52 -336 -164 -419
-66 -49 -74 -52 -181 -62 -71 -6 -102 -4 -145 8 -99 28 -183 107 -224 213 -53
135 -54 384 -2 529 22 60 88 146 135 176 75 47 195 65 288 44z"/>
<path d="M4690 1790 c-93 -6 -171 -25 -240 -58 -187 -90 -297 -213 -365 -407
-9 -27 -21 -59 -25 -70 -5 -11 -14 -68 -20 -126 -10 -84 -10 -128 0 -210 6
-57 16 -113 21 -124 4 -11 18 -48 29 -82 12 -35 33 -84 46 -109 52 -98 180
-220 276 -263 91 -41 116 -51 130 -51 8 0 18 -4 24 -8 5 -5 62 -17 126 -27
113 -18 122 -18 215 -1 102 18 176 38 230 62 17 8 34 14 37 14 10 0 110 64
136 87 14 12 34 30 45 40 24 21 115 138 115 148 0 3 12 31 26 61 15 31 33 79
41 107 47 161 38 422 -17 552 -5 11 -19 45 -32 75 -82 200 -315 368 -533 385
-138 11 -171 12 -265 5z m202 -284 c87 -23 111 -35 156 -79 48 -46 93 -129
118 -216 17 -63 16 -318 -3 -382 -21 -74 -77 -171 -120 -209 -73 -64 -104 -74
-230 -78 -104 -3 -117 -2 -165 22 -97 46 -150 112 -203 251 -26 68 -28 345 -3
415 60 164 131 242 253 274 68 18 133 19 197 2z"/>
<path d="M6477 1789 c-108 -14 -230 -83 -303 -170 -57 -69 -68 -61 -72 49 l-3
92 -174 0 c-96 0 -176 -4 -179 -9 -3 -5 -7 -331 -8 -726 -1 -609 1 -718 13
-726 16 -10 328 -13 353 -3 14 5 16 55 16 459 0 252 4 475 10 504 13 69 66
149 130 196 51 37 57 39 142 43 149 7 227 -39 261 -155 7 -25 13 -219 17 -543
l5 -505 188 -3 c146 -2 187 0 188 10 0 7 0 186 0 398 -1 536 13 642 102 730
53 53 100 70 201 70 127 0 182 -30 233 -128 27 -51 33 -161 33 -608 0 -412 2
-463 16 -468 24 -9 337 -7 352 3 18 11 20 1066 2 1144 -34 145 -117 247 -256
313 -62 29 -236 46 -352 33 -113 -12 -227 -75 -312 -172 -23 -26 -47 -47 -53
-47 -7 0 -32 25 -57 56 -48 61 -114 113 -173 138 -62 25 -220 38 -320 25z"/>
<path d="M8520 680 c-50 -26 -87 -68 -105 -119 -19 -55 -19 -89 1 -137 25 -59
49 -85 106 -112 108 -52 230 -6 283 106 28 59 28 79 1 144 -18 42 -75 101
-119 123 -41 21 -124 18 -167 -5z"/>
</g>
</svg>
