<?xml version="1.0" standalone="no"?>
<!DOCTYPE svg PUBLIC "-//W3C//DTD SVG 20010904//EN"
 "http://www.w3.org/TR/2001/REC-SVG-20010904/DTD/svg10.dtd">
<svg version="1.0" xmlns="http://www.w3.org/2000/svg"
 width="181.000000pt" height="120.000000pt" viewBox="0 0 181.000000 120.000000"
 preserveAspectRatio="xMidYMid meet">
<metadata>
Created by potrace 1.10, written by Peter Selinger 2001-2011
</metadata>
<g transform="translate(0.000000,120.000000) scale(0.100000,-0.100000)"
fill="#000000" stroke="none">
<path d="M1357 1173 c-3 -5 -8 -28 -12 -53 -12 -76 -79 -267 -154 -440 -39
-91 -71 -168 -71 -172 0 -19 23 -5 41 26 18 32 22 33 49 23 24 -9 32 -8 49 7
28 25 37 74 18 94 -14 14 -18 13 -42 -2 -14 -9 -29 -24 -32 -32 -3 -8 -9 -14
-13 -14 -5 0 11 42 35 94 70 148 128 323 141 424 6 47 3 64 -9 45z m-87 -542
c0 -11 -11 -32 -24 -48 -21 -24 -26 -26 -40 -14 -15 13 -14 17 16 48 37 38 48
41 48 14z"/>
<path d="M836 1135 c-9 -14 -23 -25 -32 -25 -25 0 -74 -56 -74 -84 0 -20 -5
-26 -21 -26 -11 0 -18 -4 -15 -8 3 -5 -21 -20 -52 -35 -31 -15 -46 -19 -32
-10 39 28 80 76 87 101 3 13 1 42 -5 65 -7 32 -10 36 -11 16 0 -15 -18 -46
-41 -72 -22 -25 -40 -51 -40 -59 0 -7 8 1 19 17 10 17 31 41 46 55 l28 25 -7
-34 c-6 -35 -25 -65 -34 -56 -3 2 1 11 8 20 7 9 10 18 7 21 -3 3 -16 -13 -29
-35 -14 -23 -28 -38 -33 -34 -4 5 -5 3 -2 -3 4 -7 -11 -24 -34 -40 -50 -34
-91 -82 -83 -96 4 -5 28 11 55 38 l48 47 34 -17 c19 -9 47 -16 62 -16 37 0
105 21 105 32 0 5 -5 6 -10 3 -6 -4 -29 3 -50 14 -22 11 -40 17 -40 12 0 -4
12 -13 26 -19 14 -7 22 -17 18 -23 -9 -15 -101 -6 -117 11 -10 10 -6 11 18 6
40 -10 95 -17 70 -9 -11 3 -31 10 -45 15 -25 10 -24 10 20 33 25 13 59 30 75
38 17 8 47 30 68 49 29 28 37 43 37 72 0 43 -3 44 -24 11z m2 -50 c-12 -28
-54 -59 -80 -61 -23 -2 -23 7 3 40 21 27 50 44 76 45 10 1 10 -5 1 -24z m-278
-178 c0 -2 -12 -14 -27 -28 l-28 -24 24 28 c23 25 31 32 31 24z"/>
<path d="M789 1064 c-23 -25 -27 -33 -13 -26 18 9 61 62 51 62 -2 0 -19 -16
-38 -36z"/>
<path d="M911 1113 c-12 -8 -21 -23 -19 -33 2 -10 -8 -31 -22 -47 l-25 -28 31
28 c16 15 37 27 45 27 33 0 54 52 25 63 -7 3 -23 -1 -35 -10z m19 -18 c-7 -9
-15 -13 -17 -11 -7 7 7 26 19 26 6 0 6 -6 -2 -15z"/>
<path d="M1061 1071 c-7 -5 -30 -7 -50 -4 -29 4 -41 0 -65 -22 -27 -25 -28
-28 -12 -37 10 -5 21 -7 24 -3 4 4 1 10 -5 12 -22 8 -14 24 10 20 12 -2 16 -2
9 0 -21 7 -3 23 26 23 49 0 58 -16 18 -30 -21 -7 -35 -14 -33 -17 8 -8 71 24
91 46 19 21 12 28 -13 12z"/>
<path d="M286 1033 c-3 -3 -6 -20 -6 -38 0 -57 -89 -315 -163 -475 -53 -114
-66 -148 -59 -154 11 -12 19 -5 38 29 19 36 28 42 39 25 20 -32 85 14 85 60 0
52 -37 59 -74 13 -10 -13 -20 -22 -22 -20 -2 2 18 53 45 113 68 152 114 291
130 396 8 45 2 66 -13 51z m-88 -563 c-11 -32 -41 -55 -58 -45 -16 10 -12 23
20 55 36 37 53 32 38 -10z"/>
<path d="M855 999 c-17 -7 -15 -8 10 -7 34 1 81 -18 83 -35 9 -58 20 -109 21
-96 0 9 10 24 21 34 11 10 20 23 20 29 0 6 -7 3 -14 -6 -16 -22 -27 -23 -20
-3 4 8 1 15 -6 15 -7 0 -10 6 -7 13 14 36 -62 76 -108 56z"/>
<path d="M765 990 c-33 -8 -13 -14 39 -10 19 1 26 -2 21 -10 -4 -6 -14 -9 -22
-5 -13 4 -13 3 -4 -9 19 -22 68 -39 96 -32 27 7 35 26 11 26 -18 0 -76 32 -76
43 0 8 -24 8 -65 -3z m125 -53 c10 -3 7 -6 -8 -6 -13 -1 -33 4 -44 10 -16 9
-18 13 -7 20 8 5 20 3 29 -5 8 -7 22 -16 30 -19z"/>
<path d="M982 993 c9 -2 24 -15 32 -29 18 -27 54 -32 63 -8 9 24 -12 37 -64
39 -27 1 -40 0 -31 -2z m73 -33 c3 -5 1 -10 -4 -10 -6 0 -11 5 -11 10 0 6 2
10 4 10 3 0 8 -4 11 -10z"/>
<path d="M981 963 c7 -12 15 -20 18 -17 3 2 -3 12 -13 22 -17 16 -18 16 -5 -5z"/>
<path d="M1408 706 c-14 -21 -34 -37 -50 -40 -31 -6 -62 -54 -48 -76 13 -22
50 3 78 51 29 50 36 47 17 -6 -18 -51 -19 -115 -2 -115 6 0 32 28 56 61 36 49
46 58 53 45 15 -27 37 -18 94 35 l54 52 0 -34 c0 -28 -10 -44 -62 -94 -76 -74
-130 -145 -168 -221 -43 -83 -38 -154 10 -154 21 0 81 63 118 125 29 47 93
200 113 271 6 21 26 43 59 66 57 40 57 59 -1 22 -44 -28 -50 -29 -43 -10 6 15
-21 46 -39 46 -6 0 -35 -23 -64 -52 -55 -54 -75 -57 -56 -8 7 18 7 32 2 36 -5
3 -13 -6 -19 -20 -9 -25 -101 -148 -106 -143 -2 2 4 27 12 57 17 61 28 140 20
140 -3 0 -16 -15 -28 -34z m-48 -76 c-25 -35 -40 -46 -40 -29 0 15 39 59 52
59 5 0 0 -13 -12 -30z m280 -43 c0 -10 -57 -142 -91 -208 -80 -161 -167 -208
-111 -61 32 83 202 310 202 269z"/>
<path d="M853 617 c-14 -24 -32 -37 -64 -46 -31 -9 -44 -10 -47 -2 -6 17 -22
13 -22 -6 0 -22 -39 -87 -47 -79 -3 3 2 26 12 51 22 60 11 71 -15 14 -24 -53
-25 -78 -5 -85 20 -8 45 13 60 50 9 20 20 30 36 31 13 1 35 5 47 9 21 7 23 6
13 -12 -7 -13 -7 -22 1 -30 8 -8 23 0 56 28 49 44 67 50 57 21 -3 -10 1 -24
10 -31 12 -10 24 -5 70 30 48 37 67 60 49 60 -3 0 -26 -16 -51 -35 -54 -41
-62 -43 -56 -11 7 33 -22 41 -58 15 -16 -11 -33 -28 -38 -37 -5 -9 -12 -14
-16 -10 -3 3 5 29 19 57 29 56 19 70 -11 18z"/>
<path d="M599 562 c-24 -16 -52 -39 -62 -53 l-18 -24 5 38 c3 20 2 37 0 37 -3
0 -25 -14 -50 -30 -38 -27 -44 -29 -44 -12 0 22 -19 42 -39 42 -9 0 -40 -24
-69 -52 l-54 -53 6 49 c5 43 4 47 -10 36 -10 -9 -14 -26 -12 -49 5 -56 38 -55
94 3 52 54 66 58 59 15 -4 -21 -27 -52 -66 -92 -146 -145 -231 -313 -184 -360
23 -23 30 -22 72 17 54 49 100 131 154 273 39 104 53 130 83 155 21 17 39 29
41 26 2 -2 0 -23 -6 -46 -5 -24 -7 -47 -4 -53 9 -13 25 -11 25 4 0 21 87 113
119 127 17 7 28 16 25 21 -8 14 -17 11 -65 -19z m-236 -194 c-78 -193 -165
-329 -194 -301 -31 30 51 187 160 306 29 31 54 57 56 57 2 0 -8 -28 -22 -62z"/>
<path d="M496 214 c-33 -32 -14 -144 24 -144 33 0 40 14 40 74 0 80 -26 109
-64 70z m44 -64 c0 -45 -13 -71 -28 -56 -10 11 -10 90 1 103 16 22 27 3 27
-47z"/>
<path d="M608 223 c-2 -5 -2 -41 0 -81 l4 -73 31 3 c18 2 30 8 28 13 -2 6 -12
9 -23 7 -16 -3 -18 4 -18 67 0 39 -4 71 -9 71 -6 0 -11 -3 -13 -7z"/>
<path d="M710 150 c0 -58 3 -81 12 -78 16 6 17 150 0 156 -9 3 -12 -18 -12
-78z"/>
<path d="M774 215 c3 -10 14 -47 22 -82 15 -59 30 -79 38 -50 2 6 12 40 21 75
10 34 15 65 11 69 -10 11 -23 -14 -30 -60 -8 -46 -17 -42 -31 15 -6 23 -17 44
-24 46 -10 3 -12 -1 -7 -13z"/>
<path d="M910 150 l0 -80 36 0 c24 0 34 4 31 13 -2 6 -14 11 -25 9 -18 -3 -22
2 -22 22 0 18 6 25 23 28 25 3 25 23 -1 23 -10 0 -17 8 -17 20 0 13 7 20 19
20 11 0 21 6 24 13 2 8 -8 12 -32 12 l-36 0 0 -80z"/>
<path d="M1096 214 c-33 -32 -14 -144 24 -144 20 0 40 13 40 26 0 16 -16 19
-25 4 -15 -24 -25 -6 -25 44 0 52 11 78 25 56 9 -15 25 -12 25 4 0 13 -20 26
-40 26 -5 0 -16 -7 -24 -16z"/>
<path d="M1211 216 c-19 -22 -10 -126 12 -140 32 -20 52 4 55 68 3 61 -8 86
-38 86 -10 0 -23 -6 -29 -14z m41 -18 c9 -25 -4 -109 -16 -105 -12 4 -21 80
-12 103 7 17 22 18 28 2z"/>
<path d="M1320 85 c0 -9 5 -15 11 -13 6 2 11 8 11 13 0 5 -5 11 -11 13 -6 2
-11 -4 -11 -13z"/>
</g>
</svg>
