<?xml version="1.0" standalone="no"?>
<!DOCTYPE svg PUBLIC "-//W3C//DTD SVG 20010904//EN"
 "http://www.w3.org/TR/2001/REC-SVG-20010904/DTD/svg10.dtd">
<svg version="1.0" xmlns="http://www.w3.org/2000/svg"
 width="1350.000000pt" height="708.000000pt" viewBox="0 0 1350.000000 708.000000"
 preserveAspectRatio="xMidYMid meet">
<metadata>
Created by potrace 1.10, written by Peter Selinger 2001-2011
</metadata>
<g transform="translate(0.000000,708.000000) scale(0.100000,-0.100000)"
fill="#999999" stroke="none">
<path d="M0 3525 l0 -2665 6750 0 6750 0 0 2665 0 2665 -6750 0 -6750 0 0
-2665z m8061 1238 c45 -9 112 -74 127 -123 10 -32 13 -120 12 -322 0 -268 -1
-281 -23 -326 -14 -29 -38 -58 -65 -77 -40 -27 -51 -30 -122 -29 -72 0 -81 3
-118 33 -23 17 -51 48 -64 69 -23 37 -23 41 -23 342 l0 305 26 41 c15 22 40
49 55 59 37 24 113 45 143 39 13 -3 36 -8 52 -11z m552 1 c28 -5 52 -20 87
-55 61 -61 63 -70 58 -425 l-3 -271 -27 -40 c-43 -66 -89 -88 -178 -87 -64 0
-82 4 -110 25 -48 33 -73 66 -87 114 -18 56 -18 545 0 600 15 51 41 89 75 111
31 20 111 43 132 39 8 -2 32 -7 53 -11z m-4168 -29 c85 -57 95 -100 95 -407
-1 -258 -8 -309 -48 -365 -12 -18 -42 -41 -65 -53 -37 -18 -57 -20 -167 -18
l-125 3 -3 429 c-1 250 2 432 7 435 5 3 69 4 142 1 112 -4 139 -8 164 -25z
m475 20 c5 -3 12 -27 15 -53 4 -26 11 -60 17 -77 5 -16 13 -52 18 -80 9 -52
22 -113 45 -205 7 -30 21 -91 30 -135 9 -44 23 -105 30 -135 15 -63 33 -143
37 -162 2 -9 -14 -14 -55 -16 -54 -3 -58 -1 -67 23 -5 14 -12 45 -16 68 -12
94 -5 87 -98 87 -57 0 -87 -4 -95 -13 -6 -8 -15 -44 -20 -82 -6 -37 -14 -72
-19 -77 -5 -5 -33 -8 -63 -6 -42 2 -53 6 -50 18 2 8 7 35 11 60 4 25 12 63 18
85 6 22 18 76 27 120 9 44 23 105 30 135 23 94 36 153 44 200 5 25 14 68 21
95 7 28 17 69 23 93 5 24 16 49 23 56 11 12 75 13 94 1z m418 -433 l-3 -427
-60 0 -60 0 0 430 0 430 45 5 c87 11 81 45 78 -438z m580 439 c9 -1 12 -95 12
-436 l0 -435 -55 0 c-54 0 -55 1 -75 40 -11 21 -20 47 -20 58 0 10 -5 23 -11
29 -6 6 -14 26 -19 44 -5 19 -18 59 -30 89 -45 118 -52 136 -57 160 -6 28 -21
50 -34 50 -5 0 -10 -105 -11 -232 l-3 -233 -60 0 -60 0 0 430 0 430 53 3 c59
3 82 -8 82 -42 0 -12 5 -27 11 -33 6 -6 14 -26 19 -44 5 -19 18 -59 30 -89 12
-30 25 -68 30 -85 5 -16 18 -55 30 -85 12 -30 25 -66 29 -80 19 -64 26 -10 29
215 1 131 6 242 11 245 8 4 55 5 99 1z m332 -1 c172 0 179 -1 185 -21 4 -11 4
-36 1 -54 l-7 -34 -67 -3 -67 -3 -5 -375 -5 -375 -57 -3 -58 -3 0 369 c0 289
-3 372 -13 380 -7 6 -40 12 -72 14 l-60 3 -3 49 c-3 50 9 71 36 61 8 -3 94 -5
192 -5z m352 -9 c5 -5 23 -64 48 -161 9 -37 30 -116 36 -139 7 -23 33 7 45 53
14 52 33 114 58 191 l19 60 47 6 c68 8 81 -5 60 -61 -9 -25 -20 -58 -25 -75
-14 -50 -40 -119 -50 -137 -6 -10 -10 -24 -10 -33 0 -8 -6 -29 -14 -47 -38
-93 -40 -107 -46 -308 l-5 -205 -59 0 -60 0 3 165 c1 101 -3 179 -9 200 -7 19
-16 49 -20 65 -5 17 -25 75 -45 130 -20 55 -40 114 -45 130 -11 39 -29 92 -46
133 -15 36 -13 38 41 45 32 4 66 -1 77 -12z m1061 9 c4 0 7 -24 5 -52 l-3 -53
-109 -3 c-64 -2 -116 -8 -124 -14 -10 -9 -13 -38 -10 -129 2 -65 6 -120 10
-124 4 -4 51 -8 105 -8 l98 -2 0 -55 0 -55 -100 -3 c-64 -2 -102 -7 -107 -15
-5 -7 -8 -84 -8 -172 1 -88 1 -166 0 -173 0 -9 -16 -12 -57 -10 l-58 3 -3 425
c-2 349 0 427 11 435 11 8 189 10 350 5z m1568 -33 c30 -22 50 -49 65 -87 22
-52 23 -69 24 -299 0 -324 -14 -377 -118 -430 -35 -18 -59 -21 -167 -21 -76 0
-125 4 -125 10 0 6 0 197 0 425 0 228 0 420 0 425 0 6 53 10 139 10 l139 0 43
-33z m2219 -1152 c0 -13 -526 -15 -4674 -15 -2601 0 -4677 4 -4680 9 -3 4 -3
11 1 15 3 3 2109 6 4680 6 4147 0 4673 -2 4673 -15z m-6450 -343 c0 -9 7 -26
15 -36 8 -11 15 -29 15 -41 0 -11 6 -29 14 -40 7 -11 16 -31 19 -45 3 -14 15
-50 26 -80 58 -148 82 -222 75 -229 -11 -12 -39 18 -45 48 -12 60 -26 66 -141
64 -133 -2 -128 -1 -128 -15 0 -26 -36 -98 -49 -98 -17 0 -11 36 19 110 12 30
24 66 27 80 3 14 12 34 19 45 8 11 14 29 14 40 0 12 7 30 15 41 8 10 15 28 15
40 0 11 7 29 15 40 8 10 15 29 15 42 0 25 36 66 50 57 6 -4 10 -14 10 -23z
m1000 7 c40 -21 45 -39 11 -39 -10 0 -24 7 -31 15 -8 10 -31 15 -69 15 -63 -1
-88 -16 -116 -70 -17 -32 -17 -35 1 -68 22 -41 79 -72 135 -72 72 0 149 -68
149 -132 0 -65 -90 -138 -171 -138 -78 0 -178 55 -151 82 9 9 16 8 29 -3 64
-52 129 -62 191 -30 106 54 65 191 -56 191 -88 0 -172 66 -172 135 0 37 33 89
73 114 43 28 123 28 177 0z m488 4 c3 -10 -14 -13 -62 -13 -60 0 -67 -2 -75
-22 -5 -13 -8 -116 -8 -230 1 -114 -2 -210 -5 -214 -23 -22 -28 21 -28 221 0
248 1 245 -85 245 -51 0 -73 9 -58 24 4 4 76 5 162 4 113 -2 155 -6 159 -15z
m385 -8 c89 -61 88 -167 -2 -230 -23 -15 -41 -29 -41 -30 0 -1 11 -22 24 -46
40 -71 76 -147 76 -158 0 -20 -30 -11 -41 12 -5 12 -31 63 -57 112 l-47 90
-65 0 -65 0 -5 -110 c-4 -89 -8 -110 -20 -110 -13 0 -15 34 -18 234 -2 164 1
238 9 247 8 10 39 14 113 14 92 0 105 -2 139 -25z m1457 -56 c6 -21 15 -41 20
-44 6 -3 10 -17 10 -30 0 -13 6 -36 14 -52 8 -15 22 -48 31 -73 9 -25 23 -60
31 -78 8 -18 14 -41 14 -50 0 -10 7 -27 15 -38 16 -22 19 -50 6 -58 -12 -8
-51 55 -51 82 0 30 -12 34 -122 39 -110 5 -148 -8 -148 -50 0 -12 -7 -33 -16
-45 -19 -27 -50 -31 -39 -4 4 9 12 31 18 47 5 17 16 42 23 57 8 14 14 34 14
45 0 10 7 27 15 37 8 11 15 29 15 41 0 12 7 30 15 41 8 10 15 27 15 36 0 17 9
41 52 138 l20 45 19 -24 c10 -12 23 -40 29 -62z m-3020 -115 c3 -101 10 -190
17 -205 16 -36 76 -79 112 -79 38 0 92 28 117 60 17 22 19 47 22 218 4 181 5
192 23 192 18 0 19 -9 19 -167 0 -227 -14 -269 -102 -314 -48 -25 -98 -24
-146 1 -87 45 -102 91 -102 304 0 89 3 166 7 170 22 22 28 -12 33 -180z m1938
156 c2 -13 10 -33 18 -44 8 -11 14 -30 14 -41 0 -12 7 -30 15 -41 8 -10 15
-28 15 -39 0 -11 6 -29 14 -40 7 -11 16 -31 19 -45 7 -33 27 -89 42 -120 7
-14 15 -38 17 -55 4 -43 -21 -39 -36 5 -26 75 -22 73 -146 73 l-113 0 -18 -34
c-10 -19 -18 -42 -19 -51 0 -19 -16 -32 -29 -24 -11 7 0 51 29 126 12 30 24
66 27 80 3 14 12 34 19 45 8 11 14 29 14 40 0 12 7 30 15 41 8 10 15 28 15 40
0 11 7 29 15 40 8 10 15 28 15 40 0 27 9 36 35 32 13 -2 21 -12 23 -28z m312
-189 c0 -189 2 -222 16 -236 13 -13 37 -16 126 -14 110 1 130 -3 111 -22 -7
-7 -58 -9 -142 -7 -104 2 -134 6 -141 18 -11 17 -14 463 -3 473 3 4 12 7 20 7
10 0 13 -43 13 -219z m417 -16 c3 -221 -2 -266 -26 -251 -8 5 -11 82 -11 247
0 224 1 240 18 237 15 -3 17 -23 19 -233z"/>
<path d="M7960 4643 c-8 -3 -23 -12 -32 -21 -16 -14 -18 -41 -18 -297 0 -268
1 -283 20 -300 12 -11 35 -18 62 -18 33 0 47 6 65 27 23 27 23 30 23 287 0
208 -3 266 -15 288 -18 35 -62 50 -105 34z"/>
<path d="M8496 4627 c-14 -14 -26 -34 -26 -44 -5 -534 -1 -571 53 -575 46 -3
73 4 92 23 19 19 20 33 20 299 0 314 2 307 -73 317 -34 5 -44 1 -66 -20z"/>
<path d="M4262 4637 c-9 -11 -12 -90 -10 -318 l3 -304 25 -8 c41 -15 109 9
122 41 14 36 20 442 8 512 -6 30 -17 61 -24 69 -21 21 -109 27 -124 8z"/>
<path d="M4857 4483 c-4 -3 -7 -21 -7 -38 0 -17 -6 -54 -14 -81 -8 -27 -16
-76 -18 -109 l-3 -60 55 0 c52 0 55 1 53 25 -4 70 -42 252 -54 264 -3 3 -9 3
-12 -1z"/>
<path d="M9043 4643 c-10 -4 -13 -76 -13 -313 0 -301 1 -310 20 -320 13 -7 39
-8 66 -4 70 10 72 19 76 310 3 271 -2 307 -49 325 -26 10 -79 11 -100 2z"/>
<path d="M4961 3154 c-12 -15 -21 -36 -21 -46 0 -11 -6 -32 -14 -46 -23 -46
-39 -96 -40 -127 l-1 -30 80 -2 c103 -2 110 2 97 58 -12 53 -30 105 -48 141
-8 14 -14 38 -14 52 0 33 -13 33 -39 0z"/>
<path d="M6657 3223 c-4 -3 -7 -51 -7 -105 l0 -98 94 0 c106 0 139 15 151 71
21 94 -30 139 -158 139 -40 0 -77 -3 -80 -7z"/>
<path d="M8275 3174 c-4 -10 -13 -34 -21 -52 -8 -18 -14 -40 -14 -48 0 -9 -6
-28 -14 -42 -8 -15 -20 -46 -27 -70 -16 -56 -11 -59 93 -60 72 0 80 2 87 21 6
14 4 29 -5 42 -8 11 -14 27 -14 37 0 9 -6 32 -14 50 -8 18 -22 53 -32 78 -23
58 -32 68 -39 44z"/>
<path d="M7197 3164 c-4 -4 -7 -18 -7 -32 0 -13 -6 -36 -14 -50 -25 -51 -39
-97 -40 -137 l-1 -40 85 0 85 0 3 33 c2 19 -4 44 -12 57 -9 14 -16 35 -16 48
0 12 -5 28 -11 34 -7 7 -15 29 -18 50 -5 28 -12 39 -27 41 -11 2 -23 0 -27 -4z"/>
</g>
</svg>
