<?xml version="1.0" standalone="no"?>
<!DOCTYPE svg PUBLIC "-//W3C//DTD SVG 20010904//EN"
 "http://www.w3.org/TR/2001/REC-SVG-20010904/DTD/svg10.dtd">
<svg version="1.0" xmlns="http://www.w3.org/2000/svg"
 width="300.000000pt" height="200.000000pt" viewBox="0 0 300.000000 200.000000"
 preserveAspectRatio="xMidYMid meet">
<metadata>
Created by potrace 1.10, written by Peter Selinger 2001-2011
</metadata>
<g transform="translate(0.000000,200.000000) scale(0.100000,-0.100000)"
fill="#000000" stroke="none">
<path d="M1117 1583 c-4 -3 -7 -14 -7 -22 0 -9 -9 -22 -20 -29 -11 -6 -28 -29
-39 -51 -21 -39 -46 -55 -113 -66 -28 -4 -39 -2 -46 11 -15 27 -95 29 -196 4
-143 -34 -166 -52 -166 -131 l0 -42 50 47 c69 65 87 71 144 52 68 -23 119 -21
153 8 26 22 128 54 139 43 3 -2 -23 -28 -57 -58 -61 -52 -96 -109 -83 -131 4
-6 3 -8 -3 -5 -6 4 -13 0 -17 -8 -4 -12 -11 -13 -31 -5 -75 29 -200 -8 -247
-71 -32 -43 -46 -73 -18 -36 12 15 28 27 35 27 12 0 11 -6 -1 -36 -25 -59 -7
-51 19 8 21 47 30 56 69 71 45 17 159 18 203 2 11 -5 35 -14 54 -22 l34 -13
-23 -25 c-13 -14 -21 -27 -19 -30 3 -2 23 16 44 42 22 26 33 43 26 38 -10 -5
-12 -4 -7 4 4 6 11 9 16 6 5 -3 11 -1 14 4 3 5 14 7 25 4 12 -3 28 7 48 32 24
28 39 37 69 40 61 6 137 -14 187 -51 42 -31 45 -36 37 -63 -4 -16 -31 -68 -59
-115 -53 -91 -59 -106 -38 -106 6 0 35 46 62 101 28 55 53 103 57 105 9 6 2
-144 -9 -178 -14 -48 -85 -134 -128 -158 -32 -18 -52 -22 -87 -18 -62 7 -152
50 -188 90 -23 25 -30 28 -30 15 0 -18 32 -54 65 -73 50 -28 -43 -115 -144
-134 -68 -13 -152 -13 -185 0 -21 8 -26 16 -26 45 0 20 -10 52 -23 73 -13 20
-29 51 -35 67 l-10 30 -1 -30 c-1 -30 31 -95 47 -95 4 0 7 -20 7 -45 0 -47 -4
-52 -22 -34 -6 6 -21 16 -34 23 -37 19 -77 104 -90 189 -8 52 -16 77 -25 77
-9 0 -3 24 21 81 36 82 42 109 26 109 -10 0 -51 -91 -51 -114 0 -13 -8 -15
-38 -10 -34 5 -44 2 -76 -26 -25 -22 -36 -40 -34 -54 3 -18 11 -21 66 -24 35
-2 69 2 76 8 10 8 14 -3 19 -48 12 -111 65 -195 151 -237 52 -26 62 -27 163
-23 129 5 173 23 231 97 37 46 40 48 63 35 31 -17 121 -18 162 0 35 14 111 92
129 131 8 18 19 25 39 25 15 0 40 5 54 12 22 10 28 9 41 -10 8 -12 21 -22 27
-22 7 0 43 27 80 60 68 60 97 73 97 45 0 -8 -9 -29 -19 -47 -19 -31 -19 -48
-1 -48 10 0 50 85 50 105 0 7 -7 18 -15 25 -13 11 -22 10 -51 -3 -32 -16 -35
-16 -32 -1 4 24 -19 29 -27 5 -3 -10 -19 -36 -35 -56 -17 -21 -30 -44 -30 -52
0 -8 -6 -13 -12 -10 -16 5 -15 42 3 85 29 69 -22 85 -99 32 l-43 -30 3 47 c3
44 5 48 31 51 l27 3 -42 52 c-114 140 -150 167 -223 167 -47 0 -105 -22 -105
-40 0 -20 -40 -9 -56 16 -22 33 -22 78 -1 102 10 10 17 26 17 35 0 9 18 37 40
62 43 50 54 95 22 95 -10 0 -22 -3 -25 -7z m-234 -162 c8 -8 5 -11 -11 -11
-12 0 -22 6 -22 13 0 9 -3 8 -9 -2 -7 -10 -22 -11 -72 -5 l-64 8 45 7 c57 9
119 4 133 -10z m-143 -22 c-11 -7 -6 -8 20 -4 19 3 55 2 80 -3 l45 -9 -37 -18
c-35 -17 -40 -18 -100 -1 -35 10 -76 23 -93 31 -29 13 -28 13 35 14 47 1 61
-2 50 -10z m302 -1 c-7 -7 -12 -29 -12 -49 0 -21 -5 -41 -11 -45 -8 -5 -9 6
-4 37 7 41 20 69 33 69 3 0 1 -5 -6 -12z m-460 -21 c-7 -7 -19 -29 -27 -48
-16 -33 -16 -33 -10 -4 4 17 14 38 22 48 19 20 31 23 15 4z m46 -12 c-28 -14
-35 -11 -19 9 7 8 19 12 27 9 12 -4 10 -8 -8 -18z m372 -67 c14 -17 15 -29 8
-55 -5 -18 -7 -37 -4 -42 3 -4 -5 -6 -18 -4 -13 3 -38 -3 -56 -12 -17 -9 -34
-14 -38 -11 -11 12 20 86 49 115 17 17 33 31 36 31 2 0 13 -10 23 -22z m298
-9 c57 -28 188 -183 140 -167 -6 2 -12 11 -13 19 -3 20 -53 73 -83 88 -12 7
-21 15 -18 19 2 4 -10 7 -27 8 -105 4 -126 8 -114 24 8 10 5 9 -9 -2 -22 -20
-44 -24 -44 -9 0 19 45 41 84 41 22 0 59 -10 84 -21z m-228 -24 c17 -9 30 -19
30 -23 0 -10 -69 -56 -76 -50 -5 6 6 88 13 88 2 0 17 -7 33 -15z m-90 -84 c0
-9 -41 -23 -49 -16 -3 4 28 20 47 24 1 1 2 -3 2 -8z m590 -149 c0 -5 -19 -30
-42 -55 -31 -35 -49 -47 -70 -47 -41 0 -36 30 12 74 27 24 50 36 70 36 17 0
30 -4 30 -8z m-1115 -58 c0 -26 -4 -29 -33 -32 -19 -2 -41 -1 -49 3 -14 5 -13
8 3 26 20 23 53 39 69 35 6 -1 10 -16 10 -32z"/>
<path d="M1644 1463 c-23 -60 -38 -86 -53 -91 -11 -4 -12 3 -7 32 9 46 -12 49
-46 7 -29 -36 -64 -55 -73 -40 -4 6 -5 11 -4 12 34 18 44 27 44 38 0 8 -6 14
-14 14 -18 0 -55 -60 -46 -74 8 -14 90 -8 109 8 14 11 16 11 16 -2 0 -13 9
-16 39 -13 21 2 43 6 49 10 6 3 12 1 14 -6 4 -10 10 -10 31 -1 16 8 27 9 27 3
0 -19 15 -10 32 20 22 38 36 38 30 0 -5 -37 15 -40 46 -7 30 32 28 46 -3 17
-30 -28 -40 -22 -24 14 17 37 4 44 -27 15 l-26 -24 7 25 c4 14 13 35 21 47 17
27 17 33 3 33 -5 0 -17 -16 -25 -35 -10 -24 -21 -35 -35 -35 -16 0 -19 4 -14
20 3 11 2 20 -4 20 -5 0 -13 -9 -16 -20 -3 -11 -11 -20 -17 -20 -5 0 -8 -6 -5
-14 6 -15 -29 -53 -39 -43 -3 3 6 31 20 63 30 64 30 64 15 64 -5 0 -17 -17
-25 -37z m-84 -72 c-6 -12 -15 -21 -21 -21 -10 0 -5 13 14 38 15 19 20 7 7
-17z m186 13 c-3 -9 -6 -19 -6 -23 0 -3 -11 -8 -25 -9 -14 -1 -25 2 -25 7 0
25 15 41 37 41 19 0 24 -4 19 -16z"/>
<path d="M2219 1472 c-6 -18 -16 -32 -23 -32 -17 0 -52 -40 -61 -67 -8 -27 15
-32 35 -8 11 13 14 13 26 -2 12 -17 14 -17 38 6 20 19 26 21 26 9 0 -9 -6 -18
-12 -21 -7 -2 -10 -8 -6 -12 15 -16 39 18 33 47 -5 21 -3 28 9 28 9 0 16 5 16
11 0 21 -34 4 -50 -25 -18 -33 -40 -46 -40 -24 0 8 7 36 16 62 9 26 14 50 10
53 -3 4 -11 -8 -17 -25z m-29 -71 c-12 -23 -29 -35 -37 -27 -7 7 26 46 39 46
5 0 4 -9 -2 -19z"/>
<path d="M1347 1433 c-26 -63 -31 -86 -16 -81 8 3 15 10 15 16 1 7 2 17 3 22
0 6 13 10 27 10 23 0 25 -3 20 -26 -5 -18 -3 -25 6 -22 13 5 40 96 34 113 -2
6 -9 -5 -16 -23 -9 -25 -17 -32 -34 -30 -21 4 -23 9 -11 41 14 35 -12 16 -28
-20z"/>
<path d="M1915 1460 c-3 -4 0 -10 6 -12 6 -2 3 -21 -10 -51 -20 -46 -20 -47
-1 -47 10 0 22 5 26 12 5 7 3 8 -5 3 -9 -5 -12 -2 -9 11 2 13 13 20 37 22 30
3 33 1 28 -17 -11 -42 42 -38 61 4 20 44 -15 79 -37 37 -7 -14 -18 -18 -41
-14 -40 6 -37 34 5 43 35 8 33 9 -17 14 -21 2 -40 0 -43 -5z m125 -49 c0 -21
-13 -41 -26 -41 -11 0 -11 5 -2 25 11 24 28 34 28 16z"/>
<path d="M2077 1405 c-22 -46 -21 -55 3 -55 23 0 53 41 48 67 -6 32 -33 26
-51 -12z m43 6 c0 -5 -9 -19 -20 -32 -21 -26 -27 -11 -10 22 11 19 30 26 30
10z"/>
<path d="M1947 1124 c-8 -16 -20 -46 -26 -66 -11 -34 -15 -37 -40 -32 -54 11
-124 -48 -108 -90 5 -12 22 -16 71 -16 54 0 67 3 76 19 7 13 7 20 0 23 -6 2 5
40 26 87 24 56 32 87 26 93 -7 7 -15 1 -25 -18z m-63 -136 c16 -26 -10 -48
-55 -48 -49 0 -52 22 -6 50 35 22 46 22 61 -2z"/>
<path d="M2016 1134 c-8 -20 1 -34 20 -34 18 0 18 24 0 39 -11 9 -15 8 -20 -5z"/>
<path d="M1050 1071 c-70 -22 -104 -41 -94 -50 5 -5 30 -14 57 -21 58 -16 67
-28 38 -51 -54 -44 -130 -29 -117 23 3 13 3 17 0 11 -3 -7 -12 -13 -20 -13
-22 0 -17 -19 15 -51 29 -28 29 -29 77 -14 26 8 59 25 73 39 24 25 24 26 7 45
-11 12 -34 24 -53 27 -43 8 -32 21 33 38 26 6 49 17 52 24 5 15 -1 15 -68 -7z"/>
<path d="M521 1029 c-6 -18 -11 -39 -10 -48 0 -9 7 4 14 29 16 51 13 67 -4 19z"/>
<path d="M779 1028 c-7 -13 -25 -39 -41 -58 -28 -35 -36 -60 -18 -60 5 0 35
23 65 50 53 48 78 60 89 42 3 -5 -4 -23 -15 -40 -20 -35 -25 -62 -9 -62 10 0
50 84 50 105 0 28 -27 37 -59 21 -37 -20 -45 -20 -38 -1 10 24 -11 27 -24 3z"/>
<path d="M2119 1028 c-7 -13 -25 -39 -40 -59 -58 -74 -28 -80 47 -9 29 28 60
50 68 50 25 0 28 -19 7 -49 -24 -33 -27 -61 -8 -61 13 0 47 73 47 101 0 32
-26 42 -61 25 -40 -20 -38 -20 -32 4 7 27 -13 25 -28 -2z"/>
<path d="M2305 1035 c-38 -20 -55 -42 -55 -72 0 -28 27 -43 76 -43 l37 0 -6
-41 c-11 -80 -87 -124 -144 -84 -13 9 -24 11 -28 6 -9 -16 42 -43 81 -43 42 0
83 26 102 65 14 29 36 193 28 214 -7 18 -54 16 -91 -2z m65 -17 c-5 -47 -15
-69 -36 -74 -32 -8 -66 5 -62 24 6 32 101 80 98 50z"/>
<path d="M231 1022 c-48 -24 -79 -67 -65 -90 12 -19 77 -27 131 -17 55 10 37
20 -34 20 -54 0 -68 3 -68 15 0 11 9 14 36 12 54 -4 89 13 89 42 0 39 -35 46
-89 18z m53 -29 c-20 -14 -36 -13 -41 4 -5 13 25 22 46 15 11 -4 10 -8 -5 -19z"/>
<path d="M585 1017 c-46 -26 -66 -67 -45 -92 11 -14 27 -16 77 -13 91 6 99 23
10 23 -57 0 -72 3 -72 15 0 11 12 15 51 15 73 0 112 39 65 65 -28 14 -41 13
-86 -13z m72 -14 c5 -14 -33 -27 -48 -17 -9 5 -6 11 7 21 20 14 36 13 41 -4z"/>
<path d="M1973 980 c-19 -46 -17 -70 6 -56 12 8 41 93 33 100 -12 12 -19 5
-39 -44z"/>
<path d="M1110 925 c0 -5 9 -25 20 -42 20 -33 61 -45 75 -23 3 6 -4 10 -17 10
-14 0 -34 13 -50 32 -15 18 -28 29 -28 23z"/>
<path d="M1221 834 c-23 -29 -27 -54 -10 -54 6 0 9 6 6 14 -4 10 6 15 35 19
62 8 77 47 18 47 -19 0 -35 -9 -49 -26z"/>
<path d="M727 744 c-12 -12 5 -32 23 -27 12 3 20 -1 23 -14 4 -16 5 -16 6 -1
1 11 7 15 15 12 19 -7 32 16 15 27 -16 10 -73 12 -82 3z m59 -13 c-3 -5 -15
-7 -26 -4 -28 7 -25 13 6 13 14 0 23 -4 20 -9z"/>
</g>
</svg>
