<?xml version="1.0" standalone="no"?>
<!DOCTYPE svg PUBLIC "-//W3C//DTD SVG 20010904//EN"
 "http://www.w3.org/TR/2001/REC-SVG-20010904/DTD/svg10.dtd">
<svg version="1.0" xmlns="http://www.w3.org/2000/svg"
 width="726.000000pt" height="342.000000pt" viewBox="0 0 726.000000 342.000000"
 preserveAspectRatio="xMidYMid meet">
<metadata>
Created by potrace 1.16, written by Peter Selinger 2001-2019
</metadata>
<g transform="translate(0.000000,342.000000) scale(0.100000,-0.100000)"
fill="#000000" stroke="none">
<path d="M0 1710 l0 -1710 3630 0 3630 0 0 1710 0 1710 -3630 0 -3630 0 0
-1710z m4125 1600 c297 -20 645 -69 930 -131 166 -36 252 -59 505 -133 184
-54 504 -188 684 -287 432 -237 699 -514 798 -829 20 -64 23 -96 23 -220 0
-168 -16 -234 -91 -380 -118 -228 -356 -456 -654 -625 -475 -269 -1001 -436
-1700 -540 -286 -42 -538 -62 -875 -71 -473 -12 -958 27 -1450 115 -534 96
-1067 281 -1440 500 -313 185 -570 439 -671 666 -253 572 158 1156 1086 1542
110 46 373 138 469 165 514 141 939 209 1481 238 191 10 686 5 905 -10z"/>
<path d="M4785 2484 c-33 -7 -100 -18 -150 -24 -49 -6 -90 -12 -91 -13 -1 -1
-5 -12 -8 -24 -7 -21 -4 -23 32 -23 23 0 45 -6 52 -15 17 -20 8 -95 -24 -210
-40 -138 -196 -741 -196 -754 0 -7 29 -11 89 -11 l88 0 16 58 c9 31 25 98 37
147 22 87 44 125 75 125 8 0 16 -20 20 -52 10 -76 34 -166 55 -209 52 -102
161 -116 242 -31 50 51 100 146 85 161 -18 18 -26 13 -57 -38 -47 -75 -75 -77
-108 -8 -22 48 -58 188 -68 262 l-6 50 54 51 c87 82 130 113 188 132 43 15 56
24 58 41 l4 23 -157 -4 c-123 -3 -158 -7 -165 -18 -15 -23 -12 -30 14 -30 14
0 32 -7 40 -16 24 -24 1 -58 -104 -155 -106 -97 -124 -106 -109 -57 14 45 14
45 53 203 48 195 95 375 108 408 15 40 2 46 -67 31z"/>
<path d="M1107 2433 c-4 -3 -7 -14 -7 -23 0 -13 11 -19 41 -23 23 -3 46 -11
50 -19 12 -19 3 -72 -42 -243 -21 -82 -66 -255 -99 -384 -34 -129 -68 -247
-76 -262 -11 -22 -28 -32 -69 -44 -34 -10 -55 -22 -55 -31 0 -12 38 -14 235
-14 202 0 235 2 235 15 0 8 0 18 0 21 0 4 -15 8 -35 9 -44 2 -65 20 -65 54 1
42 96 395 107 398 6 2 18 -13 28 -34 10 -21 48 -101 86 -178 83 -173 87 -187
60 -214 -12 -12 -32 -21 -45 -21 -22 0 -36 -16 -36 -41 0 -5 93 -9 220 -9 127
0 220 4 220 9 0 5 3 16 6 24 4 10 -4 16 -28 21 -18 4 -40 12 -49 19 -15 11
-84 148 -220 436 l-53 113 70 67 c300 283 316 297 370 307 29 5 54 28 54 48 0
3 -78 6 -174 6 -150 0 -175 -2 -180 -16 -8 -21 1 -34 25 -34 32 0 59 -19 59
-41 0 -13 -47 -66 -132 -148 -243 -232 -268 -255 -268 -238 0 18 41 178 76
294 31 103 48 125 105 132 36 5 45 10 47 29 l3 22 -229 0 c-126 0 -232 -3
-235 -7z"/>
<path d="M2828 2429 c-39 -15 -62 -70 -48 -114 13 -39 27 -53 69 -65 40 -11
96 4 116 33 17 25 20 79 5 108 -22 41 -86 58 -142 38z"/>
<path d="M4330 2132 c-8 -2 -23 -11 -32 -20 -16 -13 -27 -13 -107 3 -74 14
-96 15 -128 5 -82 -27 -142 -101 -143 -177 0 -52 36 -133 90 -203 103 -132
120 -162 120 -207 0 -33 -5 -46 -26 -62 -50 -39 -125 -20 -163 42 -11 18 -26
57 -32 86 -9 45 -14 52 -32 49 -20 -3 -23 -13 -34 -93 -22 -169 -17 -187 43
-148 24 15 30 15 97 0 40 -10 83 -17 97 -17 75 0 160 54 186 117 37 87 6 183
-103 318 -40 50 -77 105 -84 123 -16 48 -4 96 27 110 77 36 146 -18 162 -128
7 -45 32 -64 54 -42 13 13 41 233 31 242 -4 4 -15 5 -23 2z"/>
<path d="M5639 2125 c-32 -17 -51 -58 -43 -93 4 -15 24 -44 45 -64 47 -45 49
-68 16 -159 -35 -95 -104 -227 -110 -209 -3 8 -13 58 -22 110 -17 97 -67 309
-86 368 -16 49 -32 53 -147 34 -92 -14 -102 -18 -102 -37 0 -15 11 -26 32 -36
59 -25 75 -74 149 -449 11 -58 23 -136 26 -175 5 -67 4 -72 -28 -120 -53 -77
-183 -154 -334 -197 -169 -48 -633 -22 -1020 57 -122 25 -183 36 -430 79 -748
130 -1221 146 -1349 45 -47 -37 -32 -66 59 -112 52 -26 220 -66 230 -55 4 4
-1 18 -10 32 -23 34 -13 67 26 90 67 39 242 20 794 -89 394 -78 641 -118 1030
-167 55 -7 188 -13 295 -12 161 0 212 4 293 22 289 64 437 181 609 482 66 116
135 265 178 385 25 68 33 108 34 163 1 69 -1 75 -27 98 -31 27 -69 30 -108 9z"/>
<path d="M5979 2120 c-49 -26 -97 -82 -105 -125 -15 -84 20 -169 126 -296 85
-102 102 -168 55 -214 -68 -69 -175 4 -204 140 -5 21 -13 30 -26 30 -21 0 -24
-11 -39 -177 -7 -73 -7 -78 12 -78 11 0 25 7 32 15 16 19 51 19 114 0 27 -8
63 -15 79 -15 92 0 177 60 203 144 16 51 16 57 0 107 -19 58 -51 109 -133 210
-83 103 -98 176 -43 204 38 20 59 19 97 -5 38 -23 53 -48 68 -114 11 -48 28
-63 54 -47 6 4 16 48 21 97 6 49 13 101 16 117 5 22 2 27 -14 27 -11 0 -34 -8
-50 -17 -28 -16 -33 -16 -91 0 -78 22 -127 21 -172 -3z"/>
<path d="M2250 2108 c-19 -4 -89 -15 -155 -23 -66 -9 -124 -20 -129 -25 -16
-16 1 -38 27 -33 32 6 67 -27 67 -64 0 -26 -119 -505 -135 -545 -5 -12 -2 -18
6 -19 82 -3 173 1 178 8 4 4 17 42 30 83 76 250 184 480 225 480 7 0 27 -13
44 -30 41 -39 75 -47 108 -26 51 34 61 125 18 175 -62 74 -177 3 -255 -157
-38 -78 -37 -77 -45 -70 -3 4 9 59 26 123 17 64 30 120 28 124 -2 4 -19 4 -38
-1z"/>
<path d="M2821 2105 c-40 -8 -106 -17 -146 -20 -67 -7 -73 -9 -78 -31 -4 -22
-1 -24 33 -24 78 0 79 -36 10 -308 -64 -252 -65 -285 -3 -323 76 -47 185 0
264 115 26 38 45 75 42 83 -10 25 -38 13 -63 -27 -41 -67 -100 -91 -100 -41 0
11 32 143 70 294 39 151 70 280 70 286 0 13 -4 13 -99 -4z"/>
<path d="M3225 2104 c-49 -8 -112 -17 -140 -21 -41 -7 -50 -12 -50 -28 0 -16
8 -21 37 -23 63 -5 72 -54 33 -186 -19 -64 -115 -433 -115 -441 0 -3 42 -4 92
-3 l93 3 41 142 c75 256 197 460 270 451 23 -2 30 -9 32 -30 2 -14 -22 -113
-53 -220 -48 -164 -56 -202 -53 -256 5 -72 18 -91 75 -101 86 -16 147 21 228
138 40 59 47 74 35 81 -24 15 -36 12 -47 -13 -18 -39 -64 -87 -84 -87 -29 0
-25 47 15 170 90 279 100 334 72 388 -9 17 -25 36 -35 42 -29 15 -118 12 -155
-5 -54 -26 -133 -103 -172 -167 -21 -34 -39 -57 -42 -50 -3 9 17 88 54 215 6
21 -4 21 -131 1z"/>
</g>
</svg>
