<?xml version="1.0" standalone="no"?>
<!DOCTYPE svg PUBLIC "-//W3C//DTD SVG 20010904//EN"
 "http://www.w3.org/TR/2001/REC-SVG-20010904/DTD/svg10.dtd">
<svg version="1.0" xmlns="http://www.w3.org/2000/svg"
 width="837.000000pt" height="543.000000pt" viewBox="0 0 837.000000 543.000000"
 preserveAspectRatio="xMidYMid meet">
<metadata>
Created by potrace 1.10, written by Peter Selinger 2001-2011
</metadata>
<g transform="translate(0.000000,543.000000) scale(0.100000,-0.100000)"
fill="#000000" stroke="none">
<path d="M7470 3774 c-91 -17 -133 -32 -247 -92 -89 -47 -273 -258 -273 -314
0 -9 -6 -29 -14 -45 -28 -55 -39 -183 -26 -295 7 -57 18 -113 26 -125 8 -12
14 -28 14 -34 0 -20 91 -161 134 -208 43 -45 195 -151 218 -151 8 0 19 -5 25
-11 41 -41 360 -64 468 -34 193 53 324 145 431 300 24 36 44 72 44 81 0 8 5
24 11 35 6 11 17 44 24 72 40 153 24 317 -43 450 -95 188 -294 337 -492 368
-105 17 -224 18 -300 3z m314 -140 c32 -9 77 -26 98 -37 22 -12 48 -27 59 -33
46 -26 179 -168 179 -191 0 -6 7 -16 15 -23 8 -7 15 -20 15 -29 0 -9 8 -29 17
-46 24 -44 24 -271 0 -305 -9 -14 -17 -33 -17 -43 0 -22 -23 -66 -65 -122 -40
-54 -61 -74 -126 -118 -124 -83 -237 -50 -269 79 -11 42 -10 55 1 80 l14 29
173 3 c130 2 172 6 172 15 0 7 -34 57 -76 112 -86 112 -154 212 -154 225 0 5
-6 15 -12 22 -21 22 -102 179 -159 306 -26 58 -44 65 -61 25 -24 -61 -111
-234 -119 -239 -5 -3 -9 -12 -9 -21 0 -8 -13 -35 -30 -60 -16 -24 -30 -47 -30
-50 0 -11 -155 -239 -192 -282 -21 -24 -36 -46 -34 -48 3 -3 79 -4 170 -3 157
1 166 0 187 -21 31 -31 23 -106 -18 -157 -41 -51 -92 -68 -158 -52 -65 16
-150 73 -182 122 -14 21 -29 38 -32 38 -10 0 -67 116 -85 174 -23 73 -21 217
4 289 25 71 34 86 88 159 66 88 141 142 272 195 77 32 257 35 364 7z"/>
<path d="M0 3100 l0 -660 3310 0 c1821 0 3311 3 3311 8 1 4 3 282 4 617 2 336
5 628 7 650 l3 40 -3318 3 -3317 2 0 -660z m2368 389 c73 -44 122 -156 76
-173 -9 -3 -183 -6 -387 -6 -402 -1 -407 -1 -407 -53 0 -53 17 -55 347 -57
232 0 310 -4 335 -14 40 -17 128 -93 128 -110 0 -7 8 -28 17 -47 26 -52 22
-156 -7 -205 -32 -52 -96 -114 -120 -114 -10 0 -20 -6 -22 -12 -4 -10 -94 -14
-397 -16 l-393 -3 -37 25 c-45 32 -84 104 -75 139 3 16 15 28 31 32 14 3 194
5 400 5 410 -2 406 -3 406 56 0 52 -11 54 -337 54 l-301 0 -58 30 c-93 47
-138 117 -144 225 -4 60 -1 76 20 115 34 63 140 148 192 153 22 2 186 4 365 3
l325 -1 43 -26z m1386 -11 c71 -55 116 -114 116 -152 0 -14 5 -28 10 -31 13
-8 13 -87 -1 -122 -31 -79 -53 -114 -89 -147 -70 -63 -84 -66 -362 -66 -216 0
-252 2 -276 17 -73 45 -105 97 -100 159 l3 39 290 3 c216 2 291 5 297 15 4 6
8 26 8 42 0 62 10 60 -322 60 l-303 0 0 -274 -1 -273 -37 -34 c-51 -47 -91
-46 -140 1 -29 29 -37 44 -37 73 0 20 0 161 0 314 1 310 1 312 73 372 l42 36
394 0 393 0 42 -32z m922 10 c16 -12 35 -31 42 -41 8 -10 21 -25 31 -35 23
-24 71 -89 71 -98 0 -4 7 -14 15 -23 20 -21 76 -92 95 -121 27 -40 84 -114
107 -140 13 -14 23 -28 23 -31 0 -6 26 -40 80 -106 6 -7 10 -15 10 -18 0 -3
10 -19 21 -35 47 -63 -3 -160 -82 -160 -45 0 -97 41 -139 108 -14 23 -35 43
-47 47 -13 3 -163 5 -334 4 l-312 0 -31 -37 c-83 -98 -112 -122 -150 -122 -25
0 -45 8 -68 29 -28 25 -33 36 -33 73 0 41 9 57 139 228 77 102 144 190 148
195 23 28 108 142 140 188 21 29 54 67 75 84 34 30 44 33 104 33 53 0 72 -4
95 -22z m1719 -16 c127 -85 163 -251 82 -379 -14 -23 -42 -54 -62 -69 -31 -23
-34 -29 -23 -45 88 -124 108 -160 108 -193 0 -20 -4 -36 -10 -36 -5 0 -10 -6
-10 -14 0 -21 -45 -46 -82 -46 -42 1 -54 12 -157 140 -46 58 -88 109 -93 115
-5 5 -79 10 -171 11 -181 1 -198 5 -255 69 -50 55 -63 124 -28 147 6 4 136 8
288 8 l278 0 15 24 c18 27 7 69 -20 80 -9 3 -149 6 -311 6 l-294 0 -1 -57 c-1
-32 -2 -155 -3 -274 l-1 -215 -32 -32 c-25 -25 -40 -32 -71 -32 -45 0 -89 34
-101 78 -9 34 -6 611 4 642 9 28 54 80 70 80 7 0 18 7 25 15 11 14 63 15 409
13 l396 -3 50 -33z"/>
<path d="M4551 3223 c-18 -21 -35 -42 -39 -48 -4 -5 -27 -34 -50 -62 -24 -29
-40 -53 -35 -54 8 0 291 0 306 1 10 0 -11 38 -35 64 -11 12 -38 47 -60 79 -23
31 -44 57 -48 57 -5 0 -22 -17 -39 -37z"/>
<path d="M3340 2228 c-19 -5 -51 -13 -70 -18 -51 -12 -123 -40 -135 -51 -5 -5
-15 -9 -21 -9 -19 0 -103 -58 -152 -104 -47 -44 -82 -106 -82 -143 0 -31 46
-77 98 -97 57 -21 297 -22 380 -1 31 8 69 17 83 19 24 5 119 91 119 109 0 12
-40 8 -68 -7 -44 -23 -162 -46 -237 -46 -76 1 -120 23 -113 57 3 16 21 19 148
26 136 7 181 15 305 55 95 31 165 89 165 137 0 22 -29 54 -67 74 -27 13 -302
13 -353 -1z m135 -88 c21 -8 26 -16 23 -37 -3 -24 -12 -30 -68 -50 -66 -23
-203 -32 -214 -14 -13 20 44 56 149 92 61 21 76 22 110 9z"/>
<path d="M3919 2233 c0 -4 -1 -55 -2 -112 l-2 -105 -60 -32 c-33 -18 -67 -36
-75 -39 -8 -4 -22 -11 -30 -16 -8 -5 -37 -21 -65 -35 -207 -106 -203 -97 -35
-94 95 1 107 4 130 25 14 13 43 33 65 45 22 12 60 32 84 46 24 13 47 22 51 19
4 -3 13 -26 19 -52 20 -79 40 -93 134 -93 70 0 84 3 121 28 22 15 49 31 59 35
23 9 22 27 -2 27 -33 0 -68 41 -75 86 -9 64 -10 63 247 198 32 17 70 37 83 44
14 8 23 16 20 20 -3 3 -57 6 -120 7 -113 2 -115 2 -134 -24 -11 -14 -37 -35
-58 -46 -22 -10 -46 -25 -55 -32 -9 -8 -24 -11 -33 -7 -14 5 -17 17 -14 58 l3
51 -127 3 c-71 1 -128 -1 -129 -5z"/>
<path d="M4735 2232 c-3 -3 -5 -12 -5 -21 0 -9 -40 -62 -88 -117 -192 -223
-331 -380 -361 -408 -54 -51 -46 -56 98 -56 l129 0 10 28 c5 15 31 51 57 80
l48 52 116 0 c64 0 132 5 151 10 19 6 53 15 75 19 144 32 319 140 396 245 22
30 29 50 29 87 0 44 -3 49 -36 69 -32 21 -45 22 -159 18 -67 -2 -129 -9 -136
-15 -20 -16 -83 -28 -75 -14 4 6 1 13 -6 15 -20 7 -237 13 -243 8z m375 -100
c15 -13 21 -24 16 -38 -9 -28 -96 -117 -137 -140 -19 -10 -41 -24 -49 -30 -20
-14 -112 -34 -161 -34 -81 0 -59 37 95 157 52 41 173 102 202 103 7 0 22 -8
34 -18z"/>
<path d="M5629 2228 c-10 -4 -19 -13 -19 -19 0 -17 -198 -248 -302 -352 -37
-37 -53 -59 -45 -63 7 -2 71 -3 142 -2 124 3 129 4 135 25 8 37 161 194 241
249 44 30 99 57 135 67 55 16 64 16 107 1 l46 -16 45 49 c25 26 46 54 46 61 0
9 -25 12 -92 12 -83 0 -100 -3 -152 -30 -62 -31 -81 -31 -71 0 5 17 -2 19 -95
22 -56 2 -110 0 -121 -4z"/>
<path d="M6425 2233 c-16 -2 -39 -8 -50 -13 -11 -4 -31 -11 -45 -13 -51 -10
-190 -67 -190 -78 0 -4 -11 -10 -25 -13 -38 -10 -131 -106 -154 -159 -20 -46
-20 -49 -3 -85 29 -63 71 -76 250 -80 116 -3 165 0 206 12 30 9 66 16 81 16
20 0 42 14 76 49 27 28 49 55 49 60 0 15 -26 14 -63 -4 -91 -41 -278 -58 -328
-28 -60 36 -29 63 71 63 100 0 244 17 300 36 108 35 175 71 204 109 42 55 33
81 -41 119 -25 13 -60 16 -170 15 -76 -1 -151 -4 -168 -6z m110 -93 c54 -21
40 -60 -32 -88 -49 -19 -171 -31 -202 -20 -23 8 -23 9 -5 29 24 26 65 49 129
70 61 21 76 22 110 9z"/>
<path d="M7135 2233 c-61 -13 -177 -67 -208 -96 -62 -58 -60 -108 8 -137 24
-10 61 -22 82 -25 53 -9 113 -36 113 -51 0 -24 -61 -44 -136 -44 -72 0 -117
14 -185 57 -26 16 -27 16 -60 -22 -19 -22 -42 -47 -51 -57 -27 -27 -22 -38 16
-38 18 0 53 -7 77 -16 63 -22 296 -22 376 1 86 25 135 50 187 96 38 33 46 47
46 75 0 30 -5 36 -50 59 -27 14 -59 25 -71 25 -34 0 -119 33 -119 47 0 6 8 19
17 28 13 14 31 16 97 13 78 -4 120 -17 177 -54 25 -16 26 -16 77 37 55 58 64
79 32 79 -10 0 -45 7 -77 15 -54 14 -295 20 -348 8z"/>
<path d="M7870 2233 c-14 -3 -29 -9 -34 -14 -6 -5 -17 -9 -25 -9 -9 0 -29 -7
-45 -15 -15 -8 -34 -15 -41 -15 -21 0 -105 -100 -105 -125 0 -25 29 -55 53
-55 9 0 18 -4 22 -9 3 -5 31 -13 63 -16 47 -6 122 -37 122 -50 0 -2 -15 -13
-34 -24 -26 -17 -50 -21 -110 -21 -81 0 -135 16 -173 51 -29 28 -53 19 -92
-36 -18 -25 -36 -45 -42 -45 -5 0 -9 -7 -9 -15 0 -11 11 -15 40 -15 22 0 57
-7 78 -16 57 -24 274 -21 372 5 41 11 91 27 110 37 50 24 130 104 130 130 0
23 -29 54 -51 54 -8 0 -23 7 -33 15 -11 8 -34 15 -50 15 -17 0 -51 9 -75 20
-42 19 -43 21 -29 43 13 19 26 22 89 25 79 3 139 -13 192 -52 l28 -21 54 60
c30 33 54 63 55 68 0 4 -15 7 -32 7 -18 0 -51 7 -73 15 -39 14 -291 19 -355 8z"/>
</g>
</svg>
